<?xml version="1.0" encoding="UTF-8" standalone="no"?>
<svg
   xmlns:dc="http://purl.org/dc/elements/1.1/"
   xmlns:cc="http://creativecommons.org/ns#"
   xmlns:rdf="http://www.w3.org/1999/02/22-rdf-syntax-ns#"
   xmlns:svg="http://www.w3.org/2000/svg"
   xmlns="http://www.w3.org/2000/svg"
   xmlns:sodipodi="http://sodipodi.sourceforge.net/DTD/sodipodi-0.dtd"
   xmlns:inkscape="http://www.inkscape.org/namespaces/inkscape"
   inkscape:version="1.0 (4035a4fb49, 2020-05-01)"
   sodipodi:docname="decorator.svg"
   viewBox="0 0 220.36365 94.254547"
   height="94.254547"
   width="220.36365"
   id="svg833"
   version="1.1">
  <metadata
     id="metadata839">
    <rdf:RDF>
      <cc:Work
         rdf:about="">
        <dc:format>image/svg+xml</dc:format>
        <dc:type
           rdf:resource="http://purl.org/dc/dcmitype/StillImage" />
      </cc:Work>
    </rdf:RDF>
  </metadata>
  <defs
     id="defs837" />
  <sodipodi:namedview
     inkscape:current-layer="g845"
     inkscape:window-maximized="1"
     inkscape:window-y="-8"
     inkscape:window-x="-8"
     inkscape:cy="37.416783"
     inkscape:cx="96.484624"
     inkscape:zoom="5.251612"
     showgrid="false"
     id="namedview835"
     inkscape:window-height="1009"
     inkscape:window-width="2560"
     inkscape:pageshadow="2"
     inkscape:pageopacity="0"
     guidetolerance="10"
     gridtolerance="10"
     objecttolerance="10"
     borderopacity="1"
     bordercolor="#666666"
     pagecolor="#ffffff" />
  <g
     id="g841"
     inkscape:label="Image"
     inkscape:groupmode="layer">
    <g
       transform="translate(0.26929087,1.0771649)"
       id="g845">
      <path
         transform="translate(-0.26929087,-1.0771649)"
         d="M 110.12891 0.78710938 C 109.31574 0.80532026 108.41903 1.1797199 107.48828 1.9628906 C 105.54218 3.6004276 104.99389 5.8497361 105.6582 9.4550781 C 105.95377 11.059204 106.57349 13.262912 107.03711 14.351562 C 107.50073 15.440214 107.84674 16.920625 107.80664 17.640625 C 107.76649 18.360625 107.88234 19.467372 108.0625 20.099609 C 108.32642 21.025781 108.14905 21.496073 107.1543 22.523438 C 106.47525 23.224753 104.89589 24.926217 103.64258 26.304688 C 101.59868 28.552694 101.26724 28.760742 100.42969 28.3125 C 99.916103 28.037637 99.008702 27.903907 98.414062 28.017578 C 97.609472 28.171386 96.287701 27.525124 93.244141 25.490234 C 85.290851 20.172743 77.569806 16.758364 70.492188 15.427734 C 66.144147 14.610279 58.675217 14.765338 55.779297 15.732422 C 53.550407 16.476752 51.228586 18.698816 50.884766 20.417969 C 50.734356 21.170017 50.574197 21.785156 50.529297 21.785156 C 50.484377 21.785156 49.659533 21.405312 48.695312 20.939453 C 45.920852 19.598978 41.687605 19.018601 38.703125 19.570312 C 32.740825 20.672503 29.300955 23.746799 27.578125 29.513672 C 27.056545 31.259604 26.928324 31.364253 25.019531 31.621094 C 19.127457 32.413909 13.267805 34.756211 9.8574219 37.679688 C 7.4048429 39.782108 4.9917476 43.533574 3.6972656 47.255859 C 2.2140786 51.520759 2.4256459 56.576738 4.2480469 60.404297 C 5.8845289 63.841377 9.9879353 67.939944 13.412109 69.558594 C 15.754458 70.665844 16.488663 70.79485 20.392578 70.78125 C 24.941266 70.76536 27.31574 70.102276 30.21875 68.035156 C 31.85048 66.873246 31.957031 66.915483 31.957031 68.751953 C 31.957031 75.434493 44.453767 79.895085 57.998047 78.046875 C 70.469887 76.345005 82.882772 71.031024 91.888672 63.539062 C 93.527732 62.175542 94.409516 61.763066 95.816406 61.697266 C 96.814086 61.650576 98.045374 61.472511 98.552734 61.300781 C 99.317204 61.042031 100.25708 61.760134 104.04492 65.496094 C 108.54098 69.930554 108.61517 70.035227 108.57617 71.966797 C 108.54867 73.329137 107.97922 75.067315 106.7168 77.640625 C 104.55845 82.040175 103.72592 85.483921 104.14453 88.275391 C 104.4639 90.405131 106.05321 92.725051 107.63086 93.363281 C 108.60911 93.759024 109.44621 93.861005 110.27539 93.650391 C 111.10457 93.861005 111.94167 93.759024 112.91992 93.363281 C 114.49757 92.725051 116.08688 90.405131 116.40625 88.275391 C 116.82486 85.483921 115.99233 82.040175 113.83398 77.640625 C 112.57156 75.067315 112.00211 73.329137 111.97461 71.966797 C 111.93561 70.035227 112.0098 69.930554 116.50586 65.496094 C 120.29371 61.760134 121.23358 61.042031 121.99805 61.300781 C 122.50541 61.472511 123.73669 61.650576 124.73438 61.697266 C 126.14126 61.763066 127.02305 62.175542 128.66211 63.539062 C 137.66801 71.031024 150.08089 76.345005 162.55273 78.046875 C 176.09701 79.895085 188.59375 75.434493 188.59375 68.751953 C 188.59375 66.915483 188.7003 66.873246 190.33203 68.035156 C 193.23504 70.102276 195.60951 70.76536 200.1582 70.78125 C 204.06211 70.79485 204.79632 70.665844 207.13867 69.558594 C 210.56284 67.939944 214.66625 63.841377 216.30273 60.404297 C 218.12513 56.576738 218.33671 51.520759 216.85352 47.255859 C 215.55904 43.533574 213.14594 39.782108 210.69336 37.679688 C 207.28298 34.75621 201.42333 32.413909 195.53125 31.621094 C 193.62246 31.364253 193.49424 31.259604 192.97266 29.513672 C 191.24983 23.746799 187.80996 20.672503 181.84766 19.570312 C 178.86318 19.018602 174.62993 19.598978 171.85547 20.939453 C 170.89125 21.405312 170.06638 21.785156 170.02148 21.785156 C 169.97658 21.785156 169.81643 21.170017 169.66602 20.417969 C 169.3222 18.698816 167.00037 16.476752 164.77148 15.732422 C 161.87556 14.765338 154.40663 14.610279 150.05859 15.427734 C 142.98097 16.758364 135.25993 20.172743 127.30664 25.490234 C 124.26308 27.525124 122.94131 28.171386 122.13672 28.017578 C 121.54208 27.903907 120.63467 28.037637 120.12109 28.3125 C 119.28354 28.760742 118.95211 28.552694 116.9082 26.304688 C 115.65489 24.926216 114.07553 23.224753 113.39648 22.523438 C 112.40168 21.496072 112.22436 21.025781 112.48828 20.099609 C 112.66844 19.467372 112.78424 18.360625 112.74414 17.640625 C 112.70404 16.920625 113.05005 15.440214 113.51367 14.351562 C 113.97729 13.262912 114.59701 11.059204 114.89258 9.4550781 C 115.55689 5.8497361 115.0086 3.6004276 113.0625 1.9628906 C 112.13175 1.1797199 111.23504 0.80532037 110.42188 0.78710938 C 110.3717 0.78598618 110.32489 0.79921125 110.27539 0.80078125 C 110.22586 0.79920603 110.17908 0.78598572 110.12891 0.78710938 z M 109.45703 2.2441406 C 109.72252 2.241563 109.97254 2.3260917 110.27539 2.5039062 C 110.8811 2.148277 111.27255 2.1688983 112.00781 2.5039062 C 114.52023 3.6486394 114.47014 7.349507 111.84961 14.041016 C 111.53335 14.848573 110.8801 15.263524 110.27539 15.277344 C 109.67068 15.263525 109.01743 14.848573 108.70117 14.041016 C 106.08064 7.3495069 106.03055 3.6486393 108.54297 2.5039062 C 108.9106 2.3364022 109.19155 2.2467183 109.45703 2.2441406 z M 63.447266 17.212891 C 69.601306 17.221082 70.418566 17.318553 73.628906 18.423828 C 78.545646 20.116595 87.857139 24.846545 91.787109 27.648438 C 94.990449 29.932284 95.117847 30.091283 95.341797 32.078125 C 95.548697 33.913726 95.448032 34.24492 94.419922 35.117188 C 93.785252 35.655648 92.775781 36.53049 92.175781 37.0625 C 90.604751 38.455497 85.287672 42.01142 83.138672 43.105469 C 81.005062 44.191692 80.977895 44.195689 80.578125 43.548828 C 80.382775 43.232754 79.445825 43.142815 77.953125 43.296875 C 75.875995 43.511253 75.163205 43.329468 71.140625 41.550781 C 68.669465 40.458096 64.597917 38.827756 62.091797 37.929688 C 57.535217 36.296833 57.534106 36.297449 57.441406 33.453125 C 57.347076 30.558318 56.377611 27.706409 54.675781 25.316406 C 53.753871 24.021714 53.870366 23.53125 55.097656 23.53125 C 55.505286 23.53125 56.357537 23.122265 56.992188 22.623047 C 58.304008 21.591164 58.135641 20.649744 56.769531 21.380859 C 54.653681 22.513233 53.922962 20.494161 55.701172 18.427734 C 56.754742 17.203407 56.755376 17.203991 63.447266 17.212891 z M 157.10352 17.212891 C 163.79541 17.203991 163.79604 17.203407 164.84961 18.427734 C 166.62782 20.494161 165.8971 22.513233 163.78125 21.380859 C 162.41514 20.649744 162.24677 21.591164 163.55859 22.623047 C 164.19324 23.122265 165.04549 23.53125 165.45312 23.53125 C 166.68042 23.53125 166.79691 24.021714 165.875 25.316406 C 164.17317 27.706409 163.20368 30.558318 163.10938 33.453125 C 163.01667 36.297449 163.01556 36.296833 158.45898 37.929688 C 155.95286 38.827757 151.88132 40.458096 149.41016 41.550781 C 145.38758 43.329465 144.67479 43.511253 142.59766 43.296875 C 141.10496 43.142815 140.16801 43.232754 139.97266 43.548828 C 139.57289 44.195689 139.54572 44.191692 137.41211 43.105469 C 135.26311 42.01142 129.94603 38.455497 128.375 37.0625 C 127.775 36.53049 126.76553 35.655648 126.13086 35.117188 C 125.10275 34.244919 125.00208 33.913726 125.20898 32.078125 C 125.43293 30.091283 125.56033 29.932284 128.76367 27.648438 C 132.69364 24.846545 142.00513 20.116595 146.92188 18.423828 C 150.13221 17.318553 150.94948 17.221091 157.10352 17.212891 z M 41.992188 21.587891 C 46.083288 21.57611 48.186734 22.315517 51.246094 24.84375 C 53.223544 26.477902 55.461564 30.917767 55.621094 33.521484 C 55.685674 34.575626 55.542734 35.486995 55.302734 35.546875 C 54.534564 35.738542 50.112847 34.147122 49.935547 33.615234 C 49.841547 33.333235 49.909977 32.765598 50.085938 32.353516 C 50.767867 30.756521 50.547945 29.817472 49.171875 28.441406 C 46.789415 26.058948 44.716487 26.486803 40.873047 30.154297 C 39.098247 31.847847 39.0985 31.847156 34.21875 31.550781 C 29.60544 31.270588 29.337891 31.203009 29.337891 30.314453 C 29.337891 29.224192 31.358352 25.931359 32.882812 24.535156 C 35.035402 22.56368 38.013098 21.599351 41.992188 21.587891 z M 178.55859 21.587891 C 182.53768 21.599351 185.51538 22.56368 187.66797 24.535156 C 189.19243 25.931359 191.21289 29.224192 191.21289 30.314453 C 191.21289 31.203009 190.94534 31.270588 186.33203 31.550781 C 181.45228 31.847156 181.45253 31.847847 179.67773 30.154297 C 175.83429 26.486803 173.76137 26.058948 171.37891 28.441406 C 170.00284 29.817472 169.78291 30.756521 170.46484 32.353516 C 170.64083 32.765598 170.70923 33.333235 170.61523 33.615234 C 170.43793 34.147122 166.01622 35.738542 165.24805 35.546875 C 165.00809 35.486995 164.86509 34.575626 164.92969 33.521484 C 165.08922 30.917767 167.32724 26.477902 169.30469 24.84375 C 172.36405 22.315517 174.46749 21.576111 178.55859 21.587891 z M 110.27539 21.888672 L 118.58984 31.611328 C 116.13578 34.541321 112.10514 38.324905 110.27539 40.033203 C 108.44564 38.324905 104.41499 34.541321 101.96094 31.611328 L 110.27539 21.888672 z M 44.988281 29.640625 C 46.140451 29.640625 48.101562 31.604305 48.101562 32.757812 C 48.101563 33.640919 48.134523 33.640332 44.501953 32.998047 C 43.121953 32.754046 41.992187 32.324241 41.992188 32.044922 C 41.992188 31.206305 43.944321 29.640625 44.988281 29.640625 z M 175.5625 29.640625 C 176.60646 29.640625 178.55859 31.206305 178.55859 32.044922 C 178.55859 32.324241 177.42883 32.754046 176.04883 32.998047 C 172.41622 33.640332 172.44922 33.64092 172.44922 32.757812 C 172.44922 31.604305 174.41033 29.640625 175.5625 29.640625 z M 31.642578 33.568359 C 33.188148 33.568359 35.365016 33.693081 36.478516 33.845703 C 38.357096 34.103191 38.501953 34.21404 38.501953 35.386719 C 38.501953 39.503764 42.829652 44.308055 47.482422 45.357422 C 50.763502 46.097429 54.354936 43.932718 56.041016 40.201172 C 57.022556 38.028904 56.46124 37.987296 63.59375 40.773438 C 71.04726 43.684967 75.15625 45.688941 75.15625 46.412109 C 75.15625 47.173189 72.442156 48.056139 66.429688 49.25 C 56.535227 51.214688 47.483684 50.323701 39.527344 46.601562 C 34.257784 44.136357 29.942999 39.32885 29.105469 34.986328 C 28.831949 33.568146 28.832448 33.568359 31.642578 33.568359 z M 188.9082 33.568359 C 191.71833 33.568359 191.71883 33.568146 191.44531 34.986328 C 190.60778 39.32885 186.293 44.136358 181.02344 46.601562 C 173.0671 50.323702 164.01555 51.214688 154.12109 49.25 C 148.10862 48.056139 145.39453 47.173189 145.39453 46.412109 C 145.39453 45.688941 149.50352 43.684967 156.95703 40.773438 C 164.08954 37.987295 163.52823 38.028904 164.50977 40.201172 C 166.19585 43.932718 169.78728 46.097429 173.06836 45.357422 C 177.72113 44.308055 182.04883 39.503764 182.04883 35.386719 C 182.04883 34.21404 182.19369 34.103191 184.07227 33.845703 C 185.18577 33.693081 187.36263 33.568359 188.9082 33.568359 z M 26.283203 33.800781 C 27.21535 33.829641 27.125564 34.392462 27.25 35.6875 C 27.89994 42.451553 34.937779 48.131365 46.574219 51.279297 C 50.178519 52.254342 51.850621 52.459002 56.175781 52.458984 C 61.911711 52.458967 65.554044 51.810637 71.714844 49.695312 C 75.174144 48.507557 75.605149 48.45191 76.917969 49.003906 C 77.928629 49.428863 78.768131 49.489057 79.775391 49.210938 C 81.035581 48.86298 81.572874 49.038125 84.396484 50.710938 C 86.154204 51.75227 88.814984 53.475961 90.308594 54.541016 C 92.922454 56.404877 93.023956 56.548104 93.035156 58.382812 C 93.048756 60.617098 92.410833 61.299614 86.501953 65.371094 C 79.138903 70.444564 70.891299 73.656136 61.193359 75.222656 L 61.193359 75.220703 C 56.097659 76.044103 46.702584 76.041504 42.865234 75.214844 C 39.007684 74.383834 35.473311 72.517434 34.457031 70.777344 C 33.637611 69.374294 33.637386 69.374332 34.785156 68.226562 C 35.742416 67.269262 36.181957 67.126158 37.435547 67.361328 C 38.759387 67.609688 38.939453 67.534009 38.939453 66.730469 C 38.939453 65.581199 37.071354 63.675781 35.945312 63.675781 C 35.150273 63.675781 35.174609 63.528019 36.324219 61.386719 C 39.778889 54.951985 38.520984 50.603954 32.833984 49.326172 C 27.338354 48.091385 22.231739 51.765904 22.162109 57.005859 C 22.127981 59.574208 23.072037 60.411099 25.972656 60.380859 C 29.743913 60.341555 31.773588 58.248383 30.580078 55.628906 C 29.881558 54.095816 29.205571 54.221925 29.556641 55.820312 C 29.794141 56.901644 29.616023 57.35663 28.533203 58.439453 C 26.104076 60.868576 23.666016 59.753406 23.666016 56.212891 C 23.666016 55.123937 23.977564 53.824111 24.376953 53.253906 C 25.258529 51.995281 29.104404 50.15975 30.865234 50.15625 C 32.597804 50.152767 34.805891 51.540359 35.644531 53.162109 C 38.654051 58.981865 31.238048 68.030311 22.570312 69.113281 C 19.650405 69.478091 15.934962 68.768206 13 67.285156 C 10.830954 66.189126 7.5195312 63.228306 7.5195312 62.384766 C 7.5195313 62.135396 7.3448004 61.931641 7.1308594 61.931641 C 6.9169194 61.931641 6.408274 61.096175 6 60.076172 C 1.559421 48.982163 8.5187513 37.335659 21.154297 34.716797 C 23.539768 34.222381 24.961463 33.902414 25.818359 33.820312 C 25.996879 33.803208 26.150039 33.796658 26.283203 33.800781 z M 194.26758 33.800781 C 194.40074 33.796658 194.5539 33.803208 194.73242 33.820312 C 195.58931 33.902414 197.01101 34.222381 199.39648 34.716797 C 212.03202 37.335659 218.99136 48.982163 214.55078 60.076172 C 214.14251 61.096175 213.63386 61.931641 213.41992 61.931641 C 213.20598 61.931641 213.03125 62.135396 213.03125 62.384766 C 213.03125 63.228306 209.71982 66.189126 207.55078 67.285156 C 204.61581 68.768206 200.90038 69.478179 197.98047 69.113281 C 189.31274 68.030311 181.89673 58.981865 184.90625 53.162109 C 185.74489 51.540359 187.95298 50.15275 189.68555 50.15625 C 191.44638 50.15975 195.29226 51.995281 196.17383 53.253906 C 196.57322 53.824111 196.88477 55.123937 196.88477 56.212891 C 196.88477 59.753406 194.44671 60.868576 192.01758 58.439453 C 190.93474 57.35663 190.75664 56.901645 190.99414 55.820312 C 191.34521 54.221925 190.66922 54.095816 189.9707 55.628906 C 188.77719 58.248383 190.80686 60.341559 194.57812 60.380859 C 197.47875 60.411099 198.42277 59.574208 198.38867 57.005859 C 198.31904 51.765904 193.21243 48.091385 187.7168 49.326172 C 182.0298 50.603954 180.77189 54.951985 184.22656 61.386719 C 185.37617 63.528019 185.40051 63.675781 184.60547 63.675781 C 183.47943 63.675781 181.61133 65.581199 181.61133 66.730469 C 181.61133 67.534009 181.79139 67.609688 183.11523 67.361328 C 184.36882 67.126158 184.80837 67.269262 185.76562 68.226562 C 186.9134 69.374333 186.91317 69.374294 186.09375 70.777344 C 185.07747 72.517434 181.5431 74.383834 177.68555 75.214844 C 173.8482 76.041545 164.45312 76.044103 159.35742 75.220703 L 159.35742 75.222656 C 149.65948 73.656136 141.41188 70.444564 134.04883 65.371094 C 128.13995 61.299614 127.50203 60.617098 127.51562 58.382812 C 127.52683 56.548104 127.62833 56.404877 130.24219 54.541016 C 131.7358 53.475961 134.39658 51.752269 136.1543 50.710938 C 138.97791 49.038125 139.5152 48.86298 140.77539 49.210938 C 141.78265 49.489058 142.62215 49.428863 143.63281 49.003906 C 144.94563 48.45191 145.37664 48.507557 148.83594 49.695312 C 154.99674 51.810637 158.63907 52.458967 164.375 52.458984 C 168.70016 52.459002 170.37226 52.254342 173.97656 51.279297 C 185.613 48.131365 192.65084 42.451553 193.30078 35.6875 C 193.42522 34.392462 193.33543 33.829641 194.26758 33.800781 z M 41.15625 34.484375 C 41.439268 34.454027 41.890708 34.52221 42.615234 34.630859 C 44.743464 34.950007 54.708422 37.409584 54.982422 37.683594 C 55.558612 38.259786 52.856213 41.625484 51.070312 42.554688 C 47.078452 44.63165 40.683594 40.424097 40.683594 35.720703 C 40.683594 34.858011 40.684553 34.534956 41.15625 34.484375 z M 179.39453 34.484375 C 179.86622 34.534956 179.86719 34.858011 179.86719 35.720703 C 179.86719 40.424097 173.47233 44.63165 169.48047 42.554688 C 167.69457 41.625484 164.99217 38.259786 165.56836 37.683594 C 165.84236 37.409584 175.80732 34.950007 177.93555 34.630859 C 178.66008 34.522215 179.11151 34.454025 179.39453 34.484375 z M 100.54688 35.308594 C 101.17776 35.204255 102.13075 35.923291 104.91797 38.470703 C 108.39553 41.649068 108.75586 42.129418 108.75586 43.5625 C 108.75586 44.999705 108.30654 45.591545 103.84766 50.003906 C 99.74465 54.064086 98.795826 54.80144 98.066406 54.5 C 97.586406 54.301629 96.604766 54.235031 95.884766 54.351562 C 94.826276 54.522875 93.823898 54.067235 90.648438 51.974609 C 88.488438 50.551174 85.655326 48.82328 84.353516 48.132812 C 83.051706 47.442341 81.910459 46.646964 81.818359 46.365234 C 81.726259 46.083505 82.59609 45.320091 83.75 44.669922 C 87.18707 42.73331 92.680716 39.049343 94.972656 37.144531 C 96.678316 35.726973 97.36154 35.41137 98.3125 35.601562 C 98.96979 35.733019 99.861006 35.644081 100.29297 35.402344 C 100.37441 35.356766 100.45675 35.323499 100.54688 35.308594 z M 120.00391 35.308594 C 120.09404 35.323494 120.17641 35.356764 120.25781 35.402344 C 120.68977 35.644082 121.58099 35.733019 122.23828 35.601562 C 123.18924 35.411371 123.87247 35.726973 125.57812 37.144531 C 127.87006 39.049343 133.36371 42.73331 136.80078 44.669922 C 137.95469 45.320091 138.82452 46.083505 138.73242 46.365234 C 138.64032 46.646964 137.49908 47.442341 136.19727 48.132812 C 134.89546 48.823279 132.06234 50.551174 129.90234 51.974609 C 126.72688 54.067235 125.72451 54.522875 124.66602 54.351562 C 123.94602 54.235031 122.96438 54.301629 122.48438 54.5 C 121.75495 54.80144 120.80613 54.064086 116.70312 50.003906 C 112.24425 45.591545 111.79492 44.999705 111.79492 43.5625 C 111.79492 42.129418 112.15525 41.649068 115.63281 38.470703 C 118.42004 35.923291 119.37302 35.204255 120.00391 35.308594 z M 110.27539 46.701172 C 111.26158 47.350239 112.77562 48.737503 115.38672 51.341797 C 121.51682 57.455915 121.74995 58.147839 118.50195 60.595703 C 117.40637 61.421392 115.01622 63.699373 113.18945 65.658203 C 111.83375 67.111913 110.93234 67.999406 110.27539 68.498047 C 109.61844 67.999406 108.71703 67.111913 107.36133 65.658203 C 105.53456 63.699373 103.1444 61.421392 102.04883 60.595703 C 98.800824 58.147839 99.033972 57.455915 105.16406 51.341797 C 107.77516 48.737503 109.2892 47.350239 110.27539 46.701172 z M 110.08008 75.021484 C 110.1472 75.021484 110.20984 75.032548 110.27539 75.037109 C 110.34094 75.032539 110.4036 75.021484 110.4707 75.021484 C 111.18287 75.021484 113.48455 80.279021 114.2207 83.587891 C 115.09843 87.533111 114.38003 90.095044 113.04297 91.177734 C 112.07182 91.964115 111.38276 92.160197 110.27539 91.689453 C 109.16802 92.160197 108.47896 91.964115 107.50781 91.177734 C 106.17075 90.095044 105.45235 87.533111 106.33008 83.587891 C 107.06623 80.279021 109.36791 75.021484 110.08008 75.021484 z "
         style="fill:#333333;fill-opacity:1;stroke-width:0.436364"
         id="path847" />
    </g>
  </g>
</svg>
